<svg xmlns="http://www.w3.org/2000/svg" width="25.379" height="23.742" viewBox="0 0 25.379 23.742">
  <g id="ship" transform="translate(0 -1)">
    <path id="Pfad_62" data-name="Pfad 62" d="M7,5.912h4.912V1.819A.819.819,0,0,0,11.093,1H7.819A.819.819,0,0,0,7,1.819Z" transform="translate(-1.269)" fill="#162346"/>
    <path id="Pfad_63" data-name="Pfad 63" d="M3.8,22.335l1.533-.575L3,15.549H23.265L19.52,21.54l1.388.868,4.527-7.244a.819.819,0,0,0-.694-1.253H21.9L18.873,9.364A.82.82,0,0,0,18.192,9H4.275a.819.819,0,0,0-.819.819v4.093H1.819a.819.819,0,0,0-.767,1.106Z" transform="translate(-0.181 -1.451)" fill="#162346"/>
    <path id="Pfad_64" data-name="Pfad 64" d="M24.56,24a.819.819,0,0,0-.819.819,2.446,2.446,0,0,1-4.6,1.163.852.852,0,0,0-1.438,0,2.428,2.428,0,0,1-4.292,0,.852.852,0,0,0-1.438,0,2.428,2.428,0,0,1-4.292,0,.852.852,0,0,0-1.438,0,2.445,2.445,0,0,1-4.6-1.163.819.819,0,0,0-1.637,0,4.081,4.081,0,0,0,6.959,2.905,4.05,4.05,0,0,0,5.731,0,4.05,4.05,0,0,0,5.731,0,4.081,4.081,0,0,0,6.959-2.905A.819.819,0,0,0,24.56,24Z" transform="translate(0 -4.17)" fill="#162346"/>
  </g>
</svg>
