<svg xmlns="http://www.w3.org/2000/svg" xmlns:xlink="http://www.w3.org/1999/xlink" width="75.334" height="69.334" viewBox="0 0 75.334 69.334">
  <defs>
    <filter id="Pfad_6" x="0" y="21.42" width="75.334" height="47.913" filterUnits="userSpaceOnUse">
      <feOffset dy="3" input="SourceAlpha"/>
      <feGaussianBlur stdDeviation="3" result="blur"/>
      <feFlood flood-opacity="0.161"/>
      <feComposite operator="in" in2="blur"/>
      <feComposite in="SourceGraphic"/>
    </filter>
  </defs>
  <g id="sun-cloud" transform="translate(9)">
    <ellipse id="Ellipse_5" data-name="Ellipse 5" cx="16.683" cy="16.683" rx="16.683" ry="16.683" transform="translate(12.063 12.063)" fill="#efd358"/>
    <path id="Pfad_1" data-name="Pfad 1" d="M4.739,25.493H2.246a1.246,1.246,0,0,1,0-2.493H4.739a1.246,1.246,0,0,1,0,2.493Z" transform="translate(-1 4.42)" fill="#efd358"/>
    <path id="Pfad_2" data-name="Pfad 2" d="M10.391,11.637a1.242,1.242,0,0,1-.881-.365L7.765,9.528A1.246,1.246,0,0,1,9.528,7.766L11.272,9.51a1.246,1.246,0,0,1-.881,2.128Z" transform="translate(0.577 0.577)" fill="#efd358"/>
    <path id="Pfad_3" data-name="Pfad 3" d="M24.246,5.986A1.246,1.246,0,0,1,23,4.739V2.246a1.246,1.246,0,1,1,2.493,0V4.739A1.246,1.246,0,0,1,24.246,5.986Z" transform="translate(4.42 -1)" fill="#efd358"/>
    <path id="Pfad_4" data-name="Pfad 4" d="M38.447,11.637a1.246,1.246,0,0,1-.881-2.128L39.31,7.766a1.246,1.246,0,0,1,1.762,1.762l-1.745,1.744A1.243,1.243,0,0,1,38.447,11.637Z" transform="translate(7.919 0.577)" fill="#efd358"/>
    <path id="Pfad_5" data-name="Pfad 5" d="M46.739,25.493H44.246a1.246,1.246,0,1,1,0-2.493h2.493a1.246,1.246,0,0,1,0,2.493Z" transform="translate(9.348 4.42)" fill="#efd358"/>
    <g transform="matrix(1, 0, 0, 1, -9, 0)" filter="url(#Pfad_6)">
      <path id="Pfad_6-2" data-name="Pfad 6" d="M47.116,52.913h-34.9a11.217,11.217,0,0,1,0-22.435,10.951,10.951,0,0,1,3.019.428,14.944,14.944,0,0,1,26.771.816,11.08,11.08,0,0,1,5.109-1.244,11.217,11.217,0,0,1,0,22.435Z" transform="translate(8 4.42)" fill="#fff"/>
    </g>
  </g>
</svg>
