<svg id="bus" xmlns="http://www.w3.org/2000/svg" width="26.87" height="26.87" viewBox="0 0 26.87 26.87">
  <path id="Pfad_57" data-name="Pfad 57" d="M.84,16.2h.84V12H.84a.84.84,0,0,0-.84.84v2.519A.84.84,0,0,0,.84,16.2Z" transform="translate(0 -1.924)" fill="#162346"/>
  <path id="Pfad_58" data-name="Pfad 58" d="M30,12v4.2h.84a.84.84,0,0,0,.84-.84V12.84a.84.84,0,0,0-.84-.84Z" transform="translate(-4.809 -1.924)" fill="#162346"/>
  <path id="Pfad_59" data-name="Pfad 59" d="M21.473,0H6.359A3.362,3.362,0,0,0,3,3.359V22.672a.84.84,0,0,0,.84.84H23.992a.84.84,0,0,0,.84-.84V3.359A3.362,3.362,0,0,0,21.473,0ZM7.618,20.153a1.26,1.26,0,1,1,1.26-1.26A1.26,1.26,0,0,1,7.618,20.153Zm12.6,0a1.26,1.26,0,1,1,1.26-1.26A1.26,1.26,0,0,1,20.214,20.153Zm2.939-6.718a.84.84,0,0,1-.84.84H5.519a.84.84,0,0,1-.84-.84v-8.4a.84.84,0,0,1,.84-.84H22.313a.84.84,0,0,1,.84.84Z" transform="translate(-0.481)" fill="#162346"/>
  <path id="Pfad_60" data-name="Pfad 60" d="M5,30.84a.84.84,0,0,0,.84.84H9.2a.84.84,0,0,0,.84-.84V30H5Z" transform="translate(-0.802 -4.809)" fill="#162346"/>
  <path id="Pfad_61" data-name="Pfad 61" d="M21,30.84a.84.84,0,0,0,.84.84H25.2a.84.84,0,0,0,.84-.84V30H21Z" transform="translate(-3.366 -4.809)" fill="#162346"/>
</svg>
