<svg id="compass-04" xmlns="http://www.w3.org/2000/svg" width="37.466" height="37.466" viewBox="0 0 37.466 37.466">
  <path id="Pfad_11" data-name="Pfad 11" d="M19.733,1A18.733,18.733,0,1,0,38.466,19.733,18.755,18.755,0,0,0,19.733,1Zm.814,35.8V32.765a.814.814,0,0,0-1.629,0V36.8A17.1,17.1,0,0,1,2.671,20.548H6.7a.814.814,0,1,0,0-1.629H2.671A17.1,17.1,0,0,1,18.919,2.671V6.7a.814.814,0,1,0,1.629,0V2.671A17.1,17.1,0,0,1,36.8,18.919H32.765a.814.814,0,0,0,0,1.629H36.8A17.1,17.1,0,0,1,20.548,36.8Z" transform="translate(-1 -1)" fill="#162346"/>
  <path id="Pfad_12" data-name="Pfad 12" d="M29.783,13.066l-11.4,4.887a.813.813,0,0,0-.428.428l-4.887,11.4a.815.815,0,0,0,.749,1.135.806.806,0,0,0,.321-.066l11.4-4.887a.813.813,0,0,0,.428-.428l4.887-11.4a.814.814,0,0,0-1.069-1.069ZM15.365,28.553l3.957-9.231L24.6,24.6Z" transform="translate(-3.226 -3.226)" fill="#75809e"/>
</svg>
