<svg xmlns="http://www.w3.org/2000/svg" width="41.999" height="37.069" viewBox="0 0 41.999 37.069">
  <path id="icons8_feedly_1" d="M43.667,22.774,27.157,6.264a4.584,4.584,0,0,0-6.463,0L4.333,22.626a4.584,4.584,0,0,0,0,6.463l9.681,9.68C15.791,40.546,17.116,42,19.629,42H28.52c2.513,0,3.838-1.454,5.616-3.232l9.531-9.531A4.584,4.584,0,0,0,43.667,22.774ZM19.436,33.1h-.811a1.344,1.344,0,0,1-.825-.342l-1.607-1.607a.484.484,0,0,1,0-.683l7.388-7.388a.484.484,0,0,1,.683,0l2.5,2.5a.484.484,0,0,1,0,.683l-6.5,6.5A1.344,1.344,0,0,1,19.436,33.1Zm7.348,2.921-1.63,1.63a1.344,1.344,0,0,1-.825.342h-.811a1.344,1.344,0,0,1-.825-.342l-1.607-1.607a.484.484,0,0,1,0-.683L23.6,32.843a.484.484,0,0,1,.683,0l2.5,2.5A.484.484,0,0,1,26.784,36.022Zm.029-19.534L15.4,27.9a1.344,1.344,0,0,1-.825.342h-.811a1.344,1.344,0,0,1-.825-.342l-1.607-1.607a.484.484,0,0,1,0-.683l12.3-12.3a.484.484,0,0,1,.683,0l2.5,2.5A.486.486,0,0,1,26.813,16.488Z" transform="translate(-3 -4.931)" fill="#162346"/>
</svg>
