<svg xmlns="http://www.w3.org/2000/svg" width="50.578" height="28.242" viewBox="0 0 50.578 28.242">
  <g id="icons8_disney_plus_1" transform="translate(0 -16.25)">
    <path id="Pfad_32" data-name="Pfad 32" d="M11.768,32.3C7.589,30.26,6.126,30,2.887,30.208S-.352,32.037.432,32.089a7.212,7.212,0,0,1,.993.1l.156-.364-.94-.418a14.413,14.413,0,0,1,9.142,1.41c5.067,2.455,6.373,5.642,4.963,7.209s-3.866,2.351-6.9,1.672c-.052-2.143.052-3.71.052-3.71s2.821-.1,3.553.417.1.835-.365.993c.68.417,1.2.575,1.672,0s.993-3.029-4.754-2.874c-.1-.993.209-1.672-.627-2.664s-.835,2.716-.835,2.716a10.224,10.224,0,0,0-3.918,1.567C.85,39.4,6.284,42.431,6.284,42.431s.1,1.359.888,1.515.732-.992.732-.992,4.7,1.359,7.837-1.41S15.947,34.335,11.768,32.3ZM6.335,41.335a11.782,11.782,0,0,1-2.768-1.619c-.993-.888-.68-1.045-.209-1.149a20.431,20.431,0,0,1,3.081-.575Zm11.441-4.492a44.932,44.932,0,0,0-.157,4.91c.052.784,1.306.94,1.306.157s-.052-3.918-.157-4.545S18.089,36.216,17.776,36.843Zm7.1-.366s-2.874-.627-4.806.627c-.94.627-.68,1.777-.157,1.829s3.187.157,3.813.575.784.732.1,1.149a4.537,4.537,0,0,1-2.821.417c-.627-.209-.835-1.306.313-.732s3.239-.1,1.829-.575a3.661,3.661,0,0,0-3.291.157c-.732.522.262,1.619,1.1,1.984a4.158,4.158,0,0,0,3.344-.1c.94-.575,1.41-2.768-.1-3.134a21.579,21.579,0,0,0-3.134-.417c-.68-.1-.365-.365.732-.47s1.881-.157,2.821-.313S25.611,36.633,24.88,36.477Zm3.866.784a20.549,20.549,0,0,1,.522,2.978,22.812,22.812,0,0,0-2.09-3.081c-.732-.732-.94-.1-.94-.1a14.6,14.6,0,0,0-.522,4.388c.209,1.724,1.1.522,1.149,0s.157-2.246.157-2.716A10.949,10.949,0,0,0,28.8,41.546a.778.778,0,0,0,1.359-.313c.209-.522.888-3.344-.732-5.223S28.642,36.791,28.746,37.261Zm5.589,3.187c-.575.052-2.246.313-2.246.313l.365-1.1a14.409,14.409,0,0,0,1.984-.052c.888-.1.262-1.1-.052-1.1H32.924l.262-.732s1.932-.052,2.559-.157-.365-1.149-1.1-1.2a16.745,16.745,0,0,0-3.344.365c-1.045.209.68.993.68.993a5.161,5.161,0,0,1-.365.888c-.627.1-.575.47-.365.94-.417,1.1-.627,2.456.575,2.874s2.612-.68,3.187-1.149S34.91,40.394,34.335,40.447Zm4.44-3.082a26.331,26.331,0,0,0-2.142,2.821c.157-1.359.522-1.724,1.359-3.081.714-1.16-.417-.732-.417-.732s-2.664,2.246-1.515,4.806c-.784,1.932-2.037,4.7-.209,6.164.47.313.313-.627.47-1.149a19.46,19.46,0,0,1,1.2-3.918c1.254-.1,3.5-.575,3.866-3.971C41.544,36.111,39.559,36.581,38.775,37.365Zm1.619,1.724a2.953,2.953,0,0,1-2.3,1.619,17.271,17.271,0,0,1,1.724-2.4C40.395,37.783,40.917,37.678,40.395,39.09ZM20.962,34.335c1.045-1.045,1.515-2.978-.313-2.874a1.957,1.957,0,0,0-2.142-.47c-1.462.417-3.291,2.351-1.984,3.6,0,.575.157,1.672.94.68A3.549,3.549,0,0,0,20.962,34.335Zm-3.971-.575c-.157-.784.262-1.515,1.619-1.777C18.611,31.985,17.2,33.133,16.992,33.76Zm3.134-1.3c1.462-.575.993.835.209,1.41a2.709,2.709,0,0,1-2.507.47A5.352,5.352,0,0,1,20.125,32.455Zm30.282,5.538H47.262a21.182,21.182,0,0,0-.42-3.192.137.137,0,0,0-.12-.108,6.158,6.158,0,0,0-.827,0,.175.175,0,0,0-.165.222,19.149,19.149,0,0,1,.318,3.075H43.062a.178.178,0,0,0-.175.167l-.079.792a.208.208,0,0,0,.229.217l3.047.01a20.3,20.3,0,0,1-.131,3.01.133.133,0,0,0,.129.15c.479.029.845.039,1.026.041a.136.136,0,0,0,.138-.126c.028-.38.1-1.577.065-3.07l3.093.01a.175.175,0,0,0,.175-.175v-.853A.168.168,0,0,0,50.407,37.993Z" transform="translate(0 -2.914)" fill="#162346"/>
    <path id="Pfad_33" data-name="Pfad 33" d="M28.389,16.25A21.286,21.286,0,0,0,10.051,26.522l1.16.369a20.114,20.114,0,0,1,17.178-9.456A19.948,19.948,0,0,1,47.224,30.278h1.257A21.113,21.113,0,0,0,28.389,16.25Z" transform="translate(-2.108)" fill="#162346"/>
  </g>
</svg>
