<svg xmlns="http://www.w3.org/2000/svg" width="36" height="26.182" viewBox="0 0 36 26.182">
  <g id="icons8_play_button" transform="translate(-2 -8)">
    <path id="Pfad_28" data-name="Pfad 28" d="M37.192,29.731a4.43,4.43,0,0,1-3.77,3.491,96.114,96.114,0,0,1-13.466.96,98.408,98.408,0,0,1-13.466-.96,4.429,4.429,0,0,1-3.77-3.491A49.679,49.679,0,0,1,2,21.091a49.679,49.679,0,0,1,.718-8.64A4.43,4.43,0,0,1,6.489,8.96,96.114,96.114,0,0,1,19.955,8a97.251,97.251,0,0,1,13.466.96,4.429,4.429,0,0,1,3.77,3.491A48.156,48.156,0,0,1,38,21.091,58.319,58.319,0,0,1,37.192,29.731Z" fill="#162346"/>
    <path id="Pfad_29" data-name="Pfad 29" d="M29.743,21l-9.357-6.238A1.535,1.535,0,0,0,18,16.035V28.511a1.534,1.534,0,0,0,2.385,1.277l9.357-6.238a1.535,1.535,0,0,0,0-2.554Z" transform="translate(-2.909 -1.182)" opacity="0.05"/>
    <path id="Pfad_30" data-name="Pfad 30" d="M20.284,15.195l8.828,5.886c.564.405.943.767.943,1.238a1.249,1.249,0,0,1-.585,1.091c-.3.221-9.037,6.025-9.037,6.025-.737.494-1.934.389-1.934-1.226V16.428C18.5,14.787,19.8,14.869,20.284,15.195Z" transform="translate(-3 -1.274)" opacity="0.07"/>
    <path id="Pfad_31" data-name="Pfad 31" d="M19,28.647V16.264a.761.761,0,0,1,1.184-.633l9.288,6.192a.761.761,0,0,1,0,1.267l-9.288,6.192A.762.762,0,0,1,19,28.647Z" transform="translate(-3.091 -1.364)" fill="#fff"/>
  </g>
</svg>
