<svg id="meal" xmlns="http://www.w3.org/2000/svg" width="24.198" height="23.715" viewBox="0 0 24.198 23.715">
  <rect id="Rechteck_27" data-name="Rechteck 27" width="1.645" height="6.299" transform="translate(2.468 3.632) rotate(-45)" fill="#162346"/>
  <path id="Pfad_54" data-name="Pfad 54" d="M20.755,22.983l5.96,5.96,1.163-1.163-5.661-5.661a13.8,13.8,0,0,1-1.463.864Z" transform="translate(-4.163 -5.227)" fill="#162346"/>
  <path id="Pfad_55" data-name="Pfad 55" d="M24.283,3.637a.823.823,0,0,0-.9.176l-9.7,9.7-2.539-2.539.723-.723a2.468,2.468,0,0,0,0-3.49L6.685,1.586,5.522,2.749,10.7,7.926a.823.823,0,0,1,0,1.163L8.089,11.7a.84.84,0,0,1-1.163,0L1.749,6.522.586,7.685l5.176,5.177a2.468,2.468,0,0,0,3.491,0l.723-.723,2.539,2.539-9.29,9.29,1.163,1.163L10.319,19.2c4.351-.054,6.937-1.179,10.11-4.352A16.469,16.469,0,0,0,24.784,4.409.823.823,0,0,0,24.283,3.637Z" transform="translate(-0.586 -1.586)" fill="#162346"/>
</svg>
