<svg xmlns="http://www.w3.org/2000/svg" width="23.695" height="24.46" viewBox="0 0 23.695 24.46">
  <g id="opening-times" transform="translate(-1)">
    <path id="Pfad_50" data-name="Pfad 50" d="M23.351,18A5.351,5.351,0,1,0,28.7,23.351,5.351,5.351,0,0,0,23.351,18Zm3.057,6.115H22.586V20.293h1.529v2.293h2.293Z" transform="translate(-4.006 -4.241)" fill="#fff"/>
    <path id="Pfad_51" data-name="Pfad 51" d="M12.465,22.167H3.293a.764.764,0,0,1-.764-.764V7.644a.764.764,0,0,1,.764-.764H21.638a.764.764,0,0,1,.764.764V12.23h1.529V4.586A1.529,1.529,0,0,0,22.4,3.057H18.58V.764a.764.764,0,1,0-1.529,0V3.057H7.879V.764a.764.764,0,0,0-1.529,0V3.057H2.529A1.529,1.529,0,0,0,1,4.586v17.58A1.529,1.529,0,0,0,2.529,23.7h9.937Z" transform="translate(0)" fill="#fff"/>
  </g>
</svg>
