<svg xmlns="http://www.w3.org/2000/svg" width="45.949" height="42.451" viewBox="0 0 45.949 42.451">
  <g id="ventilation" transform="translate(-0.674 -1.589)">
    <path id="Pfad_89" data-name="Pfad 89" d="M27.915,24.557a13.258,13.258,0,0,0,2.851-8.276A13.919,13.919,0,0,0,23,4V22" fill="none" stroke="#60ccd0" stroke-miterlimit="10" stroke-width="3"/>
    <path id="Pfad_90" data-name="Pfad 90" d="M17.561,25.465a13.258,13.258,0,0,0-8.593,1.669A13.919,13.919,0,0,0,2.215,40L17.8,31" fill="none" stroke="#60ccd0" stroke-miterlimit="10" stroke-width="3"/>
    <path id="Pfad_91" data-name="Pfad 91" d="M23.524,33.978a13.258,13.258,0,0,0,5.742,6.607A13.919,13.919,0,0,0,43.785,40L28.2,31" fill="none" stroke="#60ccd0" stroke-miterlimit="10" stroke-width="3"/>
    <circle id="Ellipse_21" data-name="Ellipse 21" cx="6" cy="6" r="6" transform="translate(17 22)" fill="none" stroke="#60ccd0" stroke-miterlimit="10" stroke-width="3"/>
  </g>
</svg>
