<svg xmlns="http://www.w3.org/2000/svg" width="20.954" height="24.851" viewBox="0 0 20.954 24.851">
  <g id="volleyball" transform="translate(-4.956 -1)">
    <path id="Pfad_68" data-name="Pfad 68" d="M26.51,12.02a2.51,2.51,0,1,1,2.51-2.51A2.51,2.51,0,0,1,26.51,12.02Z" transform="translate(-3.11 -0.98)" fill="#162346"/>
    <circle id="Ellipse_20" data-name="Ellipse 20" cx="2.928" cy="2.928" r="2.928" transform="translate(13.36 1)" fill="#162346"/>
    <path id="Pfad_69" data-name="Pfad 69" d="M22.264,13.8,14.007,8.5a2.5,2.5,0,0,0-3.259.238l-5.02,5.02A2.5,2.5,0,0,0,5.3,16.707l2.421,4.612L4.956,25.836,6.7,27l3.521-4.9a1.255,1.255,0,0,0,.065-1.283L8.729,17.856l.549-.55,5.02-5.02.453-.453,6.442,3.758Z" transform="translate(0 -1.145)" fill="#162346"/>
    <path id="Pfad_70" data-name="Pfad 70" d="M16.064,21.331l-3.211-2.293-.93.929.98,1.854a2.856,2.856,0,0,1,.195.477l1.07.765.968,5.3,2.07-.3-.629-5.886A1.255,1.255,0,0,0,16.064,21.331Z" transform="translate(-1.138 -2.946)" fill="#162346"/>
  </g>
</svg>
