<svg xmlns="http://www.w3.org/2000/svg" width="26.221" height="25.442" viewBox="0 0 26.221 25.442">
  <path id="icons8_amazon_prime_video" d="M21.851,11.222a.762.762,0,0,0-.871.72.734.734,0,0,0,.623.818,1.248,1.248,0,0,0,.437,0,.732.732,0,0,0,.623-.668.745.745,0,0,0-.5-.826A.827.827,0,0,0,21.851,11.222ZM14.1,13.413a2.343,2.343,0,0,0-1.43.5.517.517,0,0,1-.138.1c-.013-.007-.024-.014-.024-.02-.02-.066-.034-.132-.054-.2a.26.26,0,0,0-.294-.223c-.2,0-.4.007-.6,0a.458.458,0,0,0-.392.132c0,2.29,0,4.588.007,6.871a.364.364,0,0,0,.366.156c.235-.007.472,0,.707,0,.412,0,.413,0,.413-.406V18.46c0-.046-.022-.1.024-.138a2.2,2.2,0,0,0,1.14.452,1.918,1.918,0,0,0,1.538-.478,2.423,2.423,0,0,0,.681-1.094,4.059,4.059,0,0,0,.141-1.628,2.98,2.98,0,0,0-.255-.982,1.9,1.9,0,0,0-1.31-1.12A2.493,2.493,0,0,0,14.1,13.413Zm12.818,0a2.493,2.493,0,0,0-.491.05,3.376,3.376,0,0,0-1.164.489c-.046.027-.085.073-.151.073-.032-.1-.051-.184-.084-.275a.239.239,0,0,0-.231-.182h-.817a.193.193,0,0,0-.184.125.64.64,0,0,0-.019.158v4.541c0,.222.057.288.286.288h.878c.242,0,.294-.052.294-.294V14.9a.106.106,0,0,1,.073-.125,2.31,2.31,0,0,1,1.146-.223.492.492,0,0,1,.458.392,1.523,1.523,0,0,1,.034.34v3.1c0,.242.052.3.294.3h.692c.1,0,.2,0,.3-.007a.156.156,0,0,0,.164-.156.905.905,0,0,0,.013-.19V14.887a.109.109,0,0,1,.078-.119,2.32,2.32,0,0,1,1.127-.216.488.488,0,0,1,.445.359,1.118,1.118,0,0,1,.039.361V18.3a1.173,1.173,0,0,0,.013.216.181.181,0,0,0,.156.151,1.255,1.255,0,0,0,.158.007h.8c.294,0,.333-.039.333-.333V14.952c0-.079,0-.149-.006-.221a1.312,1.312,0,0,0-1.343-1.31,2.936,2.936,0,0,0-1.486.327c-.177.091-.346.2-.51.294-.007-.013-.014-.012-.006-.019a.286.286,0,0,1-.039-.046,1.224,1.224,0,0,0-.759-.51A2.493,2.493,0,0,0,26.918,13.417Zm8.307.045a2.864,2.864,0,0,0-.657.011,2.235,2.235,0,0,0-2.016,1.676,3.617,3.617,0,0,0-.013,2.042,2.046,2.046,0,0,0,1.676,1.57,4.213,4.213,0,0,0,2.271-.2.3.3,0,0,0,.223-.32c-.007-.157,0-.321,0-.484,0-.2-.079-.256-.27-.21s-.372.085-.562.125a3.266,3.266,0,0,1-1.231.013,1.1,1.1,0,0,1-.884-1.178,1.75,1.75,0,0,1,.182.026,4.376,4.376,0,0,0,1.486.02,2.4,2.4,0,0,0,.818-.262,1.215,1.215,0,0,0,.6-.733,1.561,1.561,0,0,0-.982-1.964A3,3,0,0,0,35.225,13.462Zm-15.009.058a1.74,1.74,0,0,0-1.19.361,4.281,4.281,0,0,0-.374.333.2.2,0,0,1-.112.078c-.039-.176-.078-.34-.125-.5a.259.259,0,0,0-.294-.223h-.629c-.3,0-.333.034-.333.335V18.35a1.253,1.253,0,0,0,.006.158.176.176,0,0,0,.158.164,1.028,1.028,0,0,0,.143.006h.852a1.029,1.029,0,0,0,.143-.006.16.16,0,0,0,.158-.151,1.468,1.468,0,0,0,.006-.171V15.21c0-.072,0-.139.091-.171a3.144,3.144,0,0,1,1.276-.182,1.822,1.822,0,0,0,.27.006.187.187,0,0,0,.19-.177,1.2,1.2,0,0,0,.013-.268c0-.223.006-.452-.007-.675C20.445,13.579,20.386,13.526,20.216,13.519Zm1.1.045c-.157.007-.217.066-.223.223V16.11c0,.747,0,1.492-.006,2.217a1.255,1.255,0,0,0,.006.158.19.19,0,0,0,.177.171.437.437,0,0,0,.093.006h.91a.627.627,0,0,0,.112-.006.163.163,0,0,0,.156-.151c.007-.072.013-.145.013-.218V13.932a1.468,1.468,0,0,0-.006-.171c-.013-.15-.06-.2-.21-.2C22,13.557,21.655,13.557,21.315,13.564Zm13.62.9a1.068,1.068,0,0,1,.346.078.5.5,0,0,1,.3.413.738.738,0,0,1-.02.34.585.585,0,0,1-.5.379,1.326,1.326,0,0,1-.426.032,5.138,5.138,0,0,1-.772-.058c-.1-.012-.1-.012-.086-.117a1.787,1.787,0,0,1,.125-.452A.977.977,0,0,1,34.935,14.468Zm-21.313.056a1.57,1.57,0,0,1,.292.03.8.8,0,0,1,.621.471,1.836,1.836,0,0,1,.171.668,3.27,3.27,0,0,1-.08,1.237,1.006,1.006,0,0,1-.3.523.938.938,0,0,1-.6.231,1.8,1.8,0,0,1-.956-.21.184.184,0,0,1-.112-.182V16.1c0-.392.007-.785,0-1.178a.2.2,0,0,1,.132-.2A1.891,1.891,0,0,1,13.622,14.524Zm4.035,6.362a.51.51,0,0,0-.147.007.786.786,0,0,0-.752.709.794.794,0,0,0,.618.926,1.362,1.362,0,0,0,.231.028.827.827,0,0,0,.941-.947.735.735,0,0,0-.476-.653A.849.849,0,0,0,17.656,20.885Zm5.87.048c-.267,0-.316.05-.316.316v2.275c0,.05.02.1-.015.149-.063-.007-.1-.05-.147-.078a2.336,2.336,0,0,0-2.269-.147,2.2,2.2,0,0,0-1.094,1.25,3.989,3.989,0,0,0-.247,1.622,3.325,3.325,0,0,0,.352,1.494,2.024,2.024,0,0,0,1.216,1.075,2.272,2.272,0,0,0,2.134-.365c.05-.028.077-.077.14-.091a1.01,1.01,0,0,1,.078.246.249.249,0,0,0,.246.19h.169c.252,0,.5.007.744,0,.2,0,.253-.064.26-.268V21.2c-.007-.218-.063-.268-.273-.268Zm10.729,2.292a3.584,3.584,0,0,0-.673.041,2.3,2.3,0,0,0-1.959,1.544,3.758,3.758,0,0,0,.007,2.654,2.238,2.238,0,0,0,1.65,1.475,3.471,3.471,0,0,0,1.319.071,2.413,2.413,0,0,0,2.184-2.262s.035-.291.035-.424l-.008-.588a1.606,1.606,0,0,0-.02-.251,2.468,2.468,0,0,0-.076-.394,2.363,2.363,0,0,0-1.791-1.776A3.382,3.382,0,0,0,34.256,23.225Zm-5.828.061a2.445,2.445,0,0,0-2.444,1.8,3.906,3.906,0,0,0,.028,2.353,2.16,2.16,0,0,0,1.609,1.5,3.849,3.849,0,0,0,1.053.106,4.468,4.468,0,0,0,1.509-.288.312.312,0,0,0,.253-.365v-.506c-.007-.2-.092-.275-.3-.225-.154.042-.3.078-.456.114a3.56,3.56,0,0,1-1.44.048,1.1,1.1,0,0,1-.926-.843,2.872,2.872,0,0,1-.078-.428.22.22,0,0,1,.1.013,5.617,5.617,0,0,0,1.406.084,2.876,2.876,0,0,0,1.179-.3,1.307,1.307,0,0,0,.709-.936,1.9,1.9,0,0,0-.006-.772,1.626,1.626,0,0,0-1.151-1.228A3.1,3.1,0,0,0,28.428,23.287ZM10.872,23.4c-.141,0-.19.07-.169.21a1.266,1.266,0,0,0,.093.275c.422,1.11.85,2.212,1.27,3.315.175.463.359.933.534,1.4a.4.4,0,0,0,.42.286q.463-.01.926,0a.341.341,0,0,0,.352-.231c.014-.043.036-.085.05-.126.47-1.222.941-2.45,1.412-3.672l.42-1.116c.091-.253.034-.331-.232-.331H14.883a.288.288,0,0,0-.283.2l-.041.128c-.323,1.089-.646,2.169-.969,3.257-.043.14-.085.275-.126.415-.013,0-.022,0-.015-.007-.289-.976-.568-1.959-.856-2.935-.085-.267-.163-.541-.24-.807-.042-.148-.118-.26-.286-.26C11.674,23.4,11.272,23.392,10.872,23.4Zm6.272.007c-.218,0-.276.063-.283.281v4.859a.9.9,0,0,0,.007.134.2.2,0,0,0,.218.2c.379.007.752.007,1.131,0a.2.2,0,0,0,.218-.21V23.687c0-.218-.063-.281-.281-.281Zm11.142.958a1.525,1.525,0,0,1,.3,0c.035,0,.062.015.1.015a.627.627,0,0,1,.521.848.618.618,0,0,1-.562.435,1.833,1.833,0,0,1-.435.035,6.631,6.631,0,0,1-.85-.071c-.063-.007-.09-.033-.076-.1a1.748,1.748,0,0,1,.281-.766A.986.986,0,0,1,28.287,24.364Zm-6.27.06a2.116,2.116,0,0,1,1.081.19.193.193,0,0,1,.126.2c-.013.436-.006.858-.006,1.285v1.278a.184.184,0,0,1-.112.2,1.732,1.732,0,0,1-1.1.21.96.96,0,0,1-.751-.519,1.952,1.952,0,0,1-.2-.711,3.644,3.644,0,0,1,.084-1.321,1.633,1.633,0,0,1,.141-.342A.9.9,0,0,1,22.016,24.423Zm11.961.035a1.254,1.254,0,0,1,.4.013.908.908,0,0,1,.64.5,2.087,2.087,0,0,1,.2.794,3.333,3.333,0,0,1,.007.378,2.607,2.607,0,0,1-.1.9,1.3,1.3,0,0,1-.2.407.905.905,0,0,1-.666.379,1.254,1.254,0,0,1-.4-.015.9.9,0,0,1-.66-.526,1.992,1.992,0,0,1-.19-.694,3.853,3.853,0,0,1,.056-1.237,1.588,1.588,0,0,1,.19-.463A.915.915,0,0,1,33.977,24.459Zm0,6.646a6.774,6.774,0,0,0-1.179.13,3.924,3.924,0,0,0-1.4.6.579.579,0,0,0-.173.16.191.191,0,0,0-.017.2.173.173,0,0,0,.184.069l.688-.086a8.983,8.983,0,0,1,1.568-.069,2.2,2.2,0,0,1,.547.1.446.446,0,0,1,.32.417,1.713,1.713,0,0,1-.006.342,5.638,5.638,0,0,1-.2.924c-.154.553-.347,1.082-.547,1.618a.618.618,0,0,0-.039.171.134.134,0,0,0,.182.138.467.467,0,0,0,.182-.113,3.825,3.825,0,0,0,.66-.817,6.284,6.284,0,0,0,.88-2.753,2.342,2.342,0,0,0-.019-.491.382.382,0,0,0-.232-.312,1.8,1.8,0,0,0-.3-.108A4.854,4.854,0,0,0,33.977,31.1ZM12.139,31.4a.21.21,0,0,0-.106.061.207.207,0,0,0-.039.227.419.419,0,0,0,.108.154c.194.183.382.366.582.543a16.716,16.716,0,0,0,7.4,3.852,16.414,16.414,0,0,0,2.468.376c.314.023.628.035.941.052.228-.006.457-.006.684,0a19.441,19.441,0,0,0,2.7-.292,16.716,16.716,0,0,0,4.464-1.51,12.659,12.659,0,0,0,2.109-1.339.612.612,0,0,0,.188-.216.4.4,0,0,0,.03-.074.354.354,0,0,0-.257-.428.475.475,0,0,0-.342.045,19.987,19.987,0,0,1-2.121.833,22.438,22.438,0,0,1-4.23.964,18.266,18.266,0,0,1-1.853.154,21.82,21.82,0,0,1-3.454-.154,24.1,24.1,0,0,1-2.377-.428,22.162,22.162,0,0,1-6.626-2.736,1.205,1.205,0,0,0-.149-.074A.19.19,0,0,0,12.139,31.4Z" transform="translate(-10.699 -11.221)" fill="#162346"/>
</svg>
