<svg xmlns="http://www.w3.org/2000/svg" width="30.844" height="34.091" viewBox="0 0 30.844 34.091">
  <g id="icons8_google_play_music" transform="translate(-6 -3)">
    <path id="Pfad_45" data-name="Pfad 45" d="M18.828,8.772,9.4,3.455A2.955,2.955,0,0,0,7.793,3,1.739,1.739,0,0,0,6,4.953V35.138a1.739,1.739,0,0,0,1.793,1.953,2.957,2.957,0,0,0,1.6-.455l7.6-4.282.025-1.6,14.528-8.477,1.737.894,2.261-1.274a2.128,2.128,0,0,0,1.3-1.848,2.13,2.13,0,0,0-1.3-1.85l-3-1.7Z" fill="#162346"/>
    <path id="Pfad_46" data-name="Pfad 46" d="M17.558,33.484,23.6,30.075l3.276-1.847L33.848,24.3a12.39,12.39,0,0,0,.314-2.718A12.582,12.582,0,0,0,9.049,20.465Q9,21.017,9,21.581A12.569,12.569,0,0,0,17.558,33.484Z" transform="translate(-0.565 -1.13)" fill="#42568b"/>
    <path id="Pfad_47" data-name="Pfad 47" d="M22.711,15a7.711,7.711,0,1,0,7.711,7.711A7.711,7.711,0,0,0,22.711,15Z" transform="translate(-1.695 -2.26)" fill="#162346"/>
    <path id="Pfad_48" data-name="Pfad 48" d="M23.719,19v4.765a1.843,1.843,0,0,0-.913-.252,1.8,1.8,0,1,0,0,3.6,1.869,1.869,0,0,0,1.884-1.8V20.937h1.748V19Z" transform="translate(-2.825 -3.013)" fill="#fff"/>
  </g>
</svg>
