<svg xmlns="http://www.w3.org/2000/svg" width="40" height="10.894" viewBox="0 0 40 10.894">
  <path id="icons8_netflix_1" d="M4.158,14.969H5.821V25.114c-.665.083-1.331.166-1.913.249-.832-2.079-2.245-5.655-2.245-5.655s0,3.576,0,5.9c.333,0-.166,0-1.663.249V15.052H1.663l2.495,6.071Zm8.067,1.663V14.969H7.484v9.979l4.74-.5V22.786a20.428,20.428,0,0,0-3.077.333V20.79h2.495V19.127H9.148V16.632A19,19,0,0,0,12.225,16.632Zm1.081,0h1.663v7.651a11.145,11.145,0,0,0,1.663-.083V16.632H18.3V14.969h-4.99Zm10.478-1.663H19.127v9.148H20.79V20.79h2.245V19.127H20.79V16.632h2.994Zm2.827,7.9v-7.9H24.948v9.314c1.5.083,2.994.166,4.491.333v-1.58C28.524,22.952,27.526,22.869,26.611,22.869Zm4.158,1.83c.582.083,1.081.083,1.663.166v-9.9H30.769Zm6.985-4.574c.748-1.663,1.414-3.326,2.162-5.073h-1.83c-.416,1.081-.748,1.83-1.164,2.827-.416-1.081-.665-1.83-1.081-2.827h-1.83c.665,1.663,1.247,3.326,2,5.073-.748,1.663-1.414,3.326-2.162,4.99l1.746.249c.416-1.081.832-1.83,1.247-2.911.416,1.164.832,2,1.247,3.16.582.083,1.331.166,1.913.249C39.168,23.867,38.42,21.871,37.755,20.125Z" transform="translate(0 -14.969)" fill="#162346"/>
</svg>
