<svg xmlns="http://www.w3.org/2000/svg" width="32.826" height="30.685" viewBox="0 0 32.826 30.685">
  <g id="tv" transform="translate(-1 -3)">
    <path id="Pfad_23" data-name="Pfad 23" d="M29.106,42.619a25.574,25.574,0,0,0-8.115-1.466V39H19.563v2.153a25.58,25.58,0,0,0-8.115,1.466.714.714,0,0,0,.53,1.325,24.886,24.886,0,0,1,8.3-1.376,24.841,24.841,0,0,1,8.3,1.377.714.714,0,0,0,.53-1.326Z" transform="translate(-2.864 -10.31)" fill="#162346"/>
    <path id="Pfad_24" data-name="Pfad 24" d="M33.113,3H1.714A.714.714,0,0,0,1,3.714V26.549a.714.714,0,0,0,.714.714h31.4a.714.714,0,0,0,.714-.714V3.714A.714.714,0,0,0,33.113,3ZM32.4,22.981H2.427V4.427H32.4Z" fill="#162346"/>
  </g>
</svg>
