<svg xmlns="http://www.w3.org/2000/svg" width="37.837" height="37.837" viewBox="0 0 37.837 37.837">
  <g id="gear" transform="translate(1 1)">
    <ellipse id="Ellipse_9" data-name="Ellipse 9" cx="5.5" cy="6" rx="5.5" ry="6" transform="translate(12.451 12.041)" fill="none" stroke="#75809e" stroke-linecap="square" stroke-miterlimit="10" stroke-width="2"/>
    <path id="Pfad_13" data-name="Pfad 13" d="M37.837,19.919h0A2.655,2.655,0,0,0,35.4,17.272l-2.777-.232a12.942,12.942,0,0,0-1.688-4.065l1.806-2.134a2.655,2.655,0,0,0-.149-3.593h0A2.655,2.655,0,0,0,29,7.1L26.867,8.905A12.931,12.931,0,0,0,22.8,7.213l-.232-2.777A2.655,2.655,0,0,0,19.919,2h0a2.655,2.655,0,0,0-2.646,2.435L17.04,7.213A12.942,12.942,0,0,0,12.975,8.9L10.841,7.1a2.655,2.655,0,0,0-3.593.149h0A2.655,2.655,0,0,0,7.1,10.84l1.806,2.134A12.931,12.931,0,0,0,7.213,17.04l-2.781.232A2.655,2.655,0,0,0,2,19.919H2a2.655,2.655,0,0,0,2.435,2.646l2.781.232A12.942,12.942,0,0,0,8.9,26.862L7.1,29a2.655,2.655,0,0,0,.149,3.593h0a2.655,2.655,0,0,0,3.593.149l2.134-1.806a12.931,12.931,0,0,0,4.066,1.693l.232,2.781a2.655,2.655,0,0,0,2.646,2.431h0A2.655,2.655,0,0,0,22.565,35.4l.232-2.781a12.942,12.942,0,0,0,4.065-1.688L29,32.739a2.655,2.655,0,0,0,3.593-.149h0A2.655,2.655,0,0,0,32.738,29l-1.806-2.134A12.931,12.931,0,0,0,32.625,22.8l2.781-.232A2.655,2.655,0,0,0,37.837,19.919Z" transform="translate(-2 -2)" fill="none" stroke="#162346" stroke-linecap="square" stroke-miterlimit="10" stroke-width="2"/>
  </g>
</svg>
